<?xml version="1.0" encoding="UTF-8"?>
<svg version="1.1" viewBox="0 0 1024 1024" width="1024" height="1024" xmlns="http://www.w3.org/2000/svg">
<path transform="translate(496,213)" d="m0 0h34l27 3 26 6 20 6 27 11 20 10 18 11 16 12 11 9 15 14 9 9 9 11 12 15 12 19 12 21 9 20 7 19 7 25 5 26 2 19v43l-5 32-8 30-8 21-8 16-10 18-8 13-8 11-11 14-11 12-8 9-8 7-14 12-18 13-15 9-23 12-21 9-24 8-26 6-23 3-16 1h-12l-31-3-26-4-23-7-28-11-26-13-19-12-17-13-13-11-21-21-9-11-14-18-13-21-10-18-12-28-6-19-6-26-3-23v-33l3-30 5-25 7-26 10-25 13-25 13-20 13-17 11-13 21-21 14-11 15-11 15-9 23-12 18-8 33-11 32-7zm-242 292v23h1l1-23zm1 23v10l3 16h1l-1-11-2-15zm515 2-1 1v10h1l1-11zm-2 11v5h1v-5zm-1 5-2 10v6h1l2-9v-7zm-508 8 1 8 1-4zm2 8 1 7 2 3-1-7zm503 0 1 4zm-1 4 1 4zm-1 5-1 6 2-3zm-498 1 1 6 1-4zm496 5 1 3zm-494 1 1 3zm493 2-1 6 2-2zm-492 1 1 6 1-3zm490 5 1 3zm-488 1 1 3zm487 2 1 2zm-486 1 1 2zm485 1 1 3zm-484 1 1 5 3 7 1-3-4-9zm483 2 1 2zm-1 2-1 5 2-2zm-2 5-2 4 1 3 2-4zm-475 3 1 5 7 13 1-2-8-16zm472 4 1 2zm-1 2 1 2zm-1 2 1 2zm-1 2-1 4 2-1zm-2 4 1 2zm-1 2 1 2zm-457 2 1 3v-3zm456 0v3zm-454 3 2 5 1-2zm452 0 1 2zm-1 2v3zm-448 3 1 3v-3zm446 0 1 2zm-1 2v3zm-443 1 1 3v-3zm441 2v3zm-439 1 2 5 3 3-2-5zm437 2-3 4 1 2 3-4zm-432 6m428 0-2 4 3-2zm-427 1 1 3v-3zm2 3m422 0v3zm-421 1 2 4v-3zm419 2m-1 1m-415 1m414 0-2 4 3-2zm-413 1 2 4 2 1-2-4zm410 3m-1 1-2 4 3-2zm-405 1m1 1m1 1 2 4 2 1-2-4zm400 1m-1 1m-1 1m-1 1-2 4 3-2zm-393 1m1 1m1 1v2l2-1zm388 1m-386 1 2 4 14 14 2-1-17-17zm385 0m-1 1m-1 1-16 16h3l14-14zm-365 16m1 1m347 0m-346 1m345 0m-344 1m342 0-2 3 4-2zm-341 1 3 4 2-1-3-3zm338 2m-1 1m-332 1m330 0-2 3 4-2zm-329 1 2 3 2-1zm326 2m-322 1m320 0-1 2 3-1zm-319 1m1 1 1 2 2-1zm315 0-2 3 4-2zm-312 2 2 3 2-1zm308 1-1 2 3-1zm-304 2 1 2 2-1zm301 0-2 3 4-2zm-298 2 1 2 2-1zm295 1m-292 1m290 0-1 2 3-1zm-289 1m2 1 1 2 2-1zm284 0-1 2 3-1zm-281 2 1 2 2-1zm279 0m-2 1-1 2 3-1zm-274 1m2 1 1 2 2-1zm269 0-1 2 3-1zm-266 2m263 0m-261 1 3 3 2-1zm259 0-1 2 3-1zm-3 2m-251 1m249 0-5 3 2 1 5-3zm-247 1m2 1m2 1m2 1m234 0m-232 1 3 3 6 3 3-1-10-5zm230 0m-2 1m-2 1m-2 1m-2 1m-3 1-4 3 5-1 2-2zm-207 1 4 3 3-1-4-2zm200 2-2 2 5-1zm-193 1 2 2 3-1zm188 1-21 7 4 1 20-7zm-183 1 2 2 20 6 4-1-23-7zm158 7-7 2 4 1 7-2zm-132 1 3 2 20 4 15 2h11v-1l-31-4-14-3zm120 2-4 2 9-1v-1zm-10 2-25 3-35 1v1h36l19-2 11-2v-1z" fill="#123140"/>
<path transform="translate(496,213)" d="m0 0h34l27 3 26 6 20 6 27 11 20 10 18 11 16 12 11 9 15 14 9 9 9 11 12 15 12 19 12 21 9 20 7 19 7 25 5 26 2 19v43l-5 32-8 30-8 21-8 16-10 18-8 13-8 11-11 14-11 12-8 9-8 7-14 12-18 13-15 9-23 12-21 9-24 8-26 6-23 3-16 1h-12l-31-3-26-4-23-7-28-11-26-13-19-12-17-13-13-11-21-21-9-11-14-18-13-21-10-18-12-28-6-19-6-26-3-23v-33l3-30 5-25 7-26 10-25 13-25 13-20 13-17 11-13 21-21 14-11 15-11 15-9 23-12 18-8 33-11 32-7zm4 57-14 1-22 4-21 6-15 6-16 8-11 6-16 10-15 12-8 7-14 14-9 11-10 12-6 10-7 12-10 21-3 10-4 10-7 30-2 16v30l1 19 3 14 2 11 8 23 8 18 6 12 8 13 9 13 11 13 11 12 13 13 9 7 11 8 7 5 28 14 16 6 20 6 1 1 28 5 16 1h20l20-2 17-3 22-7 16-6 16-8 21-12 12-9 15-13 7-7 7-8 13-16 7-11 6-8 12-23 8-20 7-26 3-14 1-9v-41l-2-19-5-24-9-25-7-15-7-13-11-17-9-12-12-14-9-9-8-7-12-10-20-13-17-9-13-5-11-5-19-5-23-4-10-1zm-246 235v23h1l1-23zm1 23v10l3 16h1l-1-11-2-15zm515 2-1 1v10h1l1-11zm-2 11v5h1v-5zm-1 5-2 10v6h1l2-9v-7zm-508 8 1 8 1-4zm2 8 1 7 2 3-1-7zm503 0 1 4zm-1 4 1 4zm-1 5-1 6 2-3zm-498 1 1 6 1-4zm496 5 1 3zm-494 1 1 3zm493 2-1 6 2-2zm-492 1 1 6 1-3zm490 5 1 3zm-488 1 1 3zm487 2 1 2zm-486 1 1 2zm485 1 1 3zm-484 1 1 5 3 7 1-3-4-9zm483 2 1 2zm-1 2-1 5 2-2zm-2 5-2 4 1 3 2-4zm-475 3 1 5 7 13 1-2-8-16zm472 4 1 2zm-1 2 1 2zm-1 2 1 2zm-1 2-1 4 2-1zm-2 4 1 2zm-1 2 1 2zm-457 2 1 3v-3zm456 0v3zm-454 3 2 5 1-2zm452 0 1 2zm-1 2v3zm-448 3 1 3v-3zm446 0 1 2zm-1 2v3zm-443 1 1 3v-3zm441 2v3zm-439 1 2 5 3 3-2-5zm437 2-3 4 1 2 3-4zm-432 6m428 0-2 4 3-2zm-427 1 1 3v-3zm2 3m422 0v3zm-421 1 2 4v-3zm419 2m-1 1m-415 1m414 0-2 4 3-2zm-413 1 2 4 2 1-2-4zm410 3m-1 1-2 4 3-2zm-405 1m1 1m1 1 2 4 2 1-2-4zm400 1m-1 1m-1 1m-1 1-2 4 3-2zm-393 1m1 1m1 1v2l2-1zm388 1m-386 1 2 4 14 14 2-1-17-17zm385 0m-1 1m-1 1-16 16h3l14-14zm-365 16m1 1m347 0m-346 1m345 0m-344 1m342 0-2 3 4-2zm-341 1 3 4 2-1-3-3zm338 2m-1 1m-332 1m330 0-2 3 4-2zm-329 1 2 3 2-1zm326 2m-322 1m320 0-1 2 3-1zm-319 1m1 1 1 2 2-1zm315 0-2 3 4-2zm-312 2 2 3 2-1zm308 1-1 2 3-1zm-304 2 1 2 2-1zm301 0-2 3 4-2zm-298 2 1 2 2-1zm295 1m-292 1m290 0-1 2 3-1zm-289 1m2 1 1 2 2-1zm284 0-1 2 3-1zm-281 2 1 2 2-1zm279 0m-2 1-1 2 3-1zm-274 1m2 1 1 2 2-1zm269 0-1 2 3-1zm-266 2m263 0m-261 1 3 3 2-1zm259 0-1 2 3-1zm-3 2m-251 1m249 0-5 3 2 1 5-3zm-247 1m2 1m2 1m2 1m234 0m-232 1 3 3 6 3 3-1-10-5zm230 0m-2 1m-2 1m-2 1m-2 1m-3 1-4 3 5-1 2-2zm-207 1 4 3 3-1-4-2zm200 2-2 2 5-1zm-193 1 2 2 3-1zm188 1-21 7 4 1 20-7zm-183 1 2 2 20 6 4-1-23-7zm158 7-7 2 4 1 7-2zm-132 1 3 2 20 4 15 2h11v-1l-31-4-14-3zm120 2-4 2 9-1v-1zm-10 2-25 3-35 1v1h36l19-2 11-2v-1z" fill="#FBFCF3"/>
<path transform="translate(500,270)" d="m0 0h32l22 3 14 3 16 4 11 5 17 7 18 10 16 11 13 11 15 14 10 11 13 18 9 14 10 19 4 9 9 25 3 15 2 9 2 19v41l-2 14-8 32-10 25-12 23-9 12-8 11-11 13-12 13-10 9-13 10-22 13-16 8-15 6-15 5-10 3-23 4-14 1h-20l-16-1-28-5-8-3-17-5-12-5-19-9-13-8-11-8-8-6-12-11-13-13-9-11-11-14-8-13-7-12-11-25-8-25-3-16-1-5-1-19v-30l3-21 7-29 10-25 10-19 10-16 9-11 12-14 17-17 13-10 15-10 13-8 14-7 10-4 19-7 21-5 13-2zm-4 20-19 3-22 5-16 6-25 12-22 15-10 8-16 15-10 11-12 16-9 16-9 19-8 22-5 26-3 32h56l2 26 5 21 6 17 11 21 12 14 1 2h2v2h2l2 4 10 9 8 6 10 7 20 11 18 6 21 4 8 1h18l22-3 26-8 17-8 13-9 10-8 7-6 5-5 8-10 9-12 8-16 7-17 4-17 2-20v-12h44l12-1v-15l-5-33-6-20-10-24-8-15-10-15-9-11-9-10-6-7-8-7-14-11-17-11-16-8-19-8-13-4-21-4-20-2z" fill="#3FA5C7"/>
<path transform="translate(496,213)" d="m0 0h34l27 3 26 6 20 6 27 11 20 10 18 11 16 12 11 9 15 14 9 9 9 11 12 15 12 19 12 21 9 20 7 19 7 25 5 26 2 19v43l-5 32-8 30-8 21-8 16-10 18-8 13-8 11-11 14-11 12-8 9-8 7-14 12-18 13-15 9-23 12-21 9-24 8-26 6-23 3-16 1h-12l-31-3-26-4-23-7-28-11-26-13-19-12-17-13-13-11-21-21-9-11-14-18-13-21-10-18-12-28-6-19-6-26-3-23v-33l3-30 5-25 7-26 10-25 13-25 13-20 13-17 11-13 21-21 14-11 15-11 15-9 23-12 18-8 33-11 32-7zm1 21-20 2-25 5-29 9-18 8-16 8-18 11-19 14-14 12-22 22-9 11-10 14-12 20-8 15-8 19-6 18-5 24-4 30v52l3 22 5 19 7 21 10 23 6 11 13 20 11 14 9 10 1 2h2l2 4 14 14 8 7 15 12 17 11 16 9 15 8 23 9 25 7 23 4 20 2h36l19-2 24-5 26-8 19-8 21-11 16-11 19-14 15-13 11-11 9-11 11-13 12-18 9-15 10-23 6-17 6-24 3-20 1-16 1-6v-20l-2-30-3-19-7-23-5-15-4-9-3-8-4-8-1-3h-2l-1-5-2-2-3-7-11-17-13-17-9-10-4-5-5-5-14-13-8-6h-2v-2l-4-1v-2l-16-10-10-7-19-9-8-4-14-6-29-8-12-3-13-2-13-1z" fill="#133443"/>
<path transform="translate(512,370)" d="m0 0 25 2 15 4 13 5 16 9 8 6-1 4-14 15-30 30-5 6-27 27-2 3h-2l-5-6-11-9-10-9-9-5-4-1h-15l-13 3-9 6-7 10-4 11v16l6 12 11 11 8 7 7 8 8 7 10 9 12 11 8 7 5 4 5 2h12l8-4 14-12 4-4h2v-2l8-7 38-38 8-10 7-7h2l2-4 15-16 8-7 3-3 3 1 3 15 1 10v23l-2 17-6 20-7 14-10 14-9 11-3 4h-2l-2 4-12 10-17 10-22 8-16 3-11 1h-10l-25-3-13-4-20-9-12-8-13-11-8-8-8-10-8-13-7-15-5-16-3-16v-25l3-20 8-24 9-17 7-9 9-10 13-11 15-10 16-8 16-5 18-3z" fill="#FCDB7F"/>
<path transform="translate(496,290)" d="m0 0h29l26 3 22 5 21 8 16 8 14 8 12 9 11 9 9 8 7 8 12 14 10 15 9 16 10 23 6 19 4 22 2 15v15l-12 1h-44l-2-22-6-26v-4l3-1 2-5v-11l-3-12-8-14-6-7v-2l-5-2-11-4-19-1-12-10-18-10-15-6-16-5-15-2h-30l-15 2-18 5-14 6-21 12-11 9-10 9-10 11-9 13-8 14-9 23-6 29-1 11h-57l3-32 5-26 8-22 12-25 9-14 11-14 11-12 16-15 17-12 16-10 21-10 19-7 30-6z" fill="#67C893"/>
<path transform="translate(500,270)" d="m0 0h32l22 3 14 3 16 4 11 5 17 7 18 10 16 11 13 11 15 14 10 11 13 18 9 14 10 19 4 9 9 25 3 15 2 9 2 19v41l-2 14-8 32-10 25-12 23-9 12-8 11-11 13-12 13-10 9-13 10-22 13-16 8-15 6-15 5-10 3-23 4-14 1h-20l-16-1-28-5-8-3-17-5-12-5-19-9-13-8-11-8-8-6-12-11-13-13-9-11-11-14-8-13-7-12-11-25-8-25-3-16-1-5-1-19v-30l3-21 7-29 10-25 10-19 10-16 9-11 12-14 17-17 13-10 15-10 13-8 14-7 10-4 19-7 21-5 13-2zm-4 20-19 3-22 5-16 6-25 12-22 15-10 8-16 15-10 11-12 16-9 16-9 19-8 22-5 26-3 32 1 20 4 24 8 26 10 24 11 18 12 16 11 12 10 10 8 7 17 13 24 13 16 7 28 9 21 3 11 1h26l19-2 15-3 27-9 27-13 15-10 11-9 10-9 16-16 13-18 10-15 10-21 8-24 5-26 2-16v-28l-5-33-6-20-10-24-8-15-10-15-9-11-9-10-6-7-8-7-14-11-17-11-16-8-19-8-13-4-21-4-20-2z" fill="#123241"/>
<path transform="translate(632,461)" d="m0 0 3 1 3 15 1 10v23l-2 17-6 20-7 14-10 14-9 11-3 4h-2l-2 4-12 10-17 10-22 8-16 3-11 1h-10l-25-3-13-4-20-9-12-8-13-11-8-8-8-10-8-13-4-8 2-4 8 7 17 12 14 8 9 6 10 5 16 4 9 2 9 4-6-8-11-12-13-13-11-9-13-13-9-11-4-5-2-4v-9l3-3 11 11 8 7 7 8 8 7 10 9 12 11 8 7 5 4 5 2h12l8-4 14-12 4-4h2v-2l8-7 38-38 8-10 7-7h2l2-4 15-16 8-7z" fill="#D8A43A"/>
<path transform="translate(613,407)" d="m0 0 11 1 8 6 3 5v9l-4 7-15 15-7 8-56 56-7 8-16 15-12 13-8 6-6-1-11-10-7-8-8-7-14-14-8-7-11-11-3-5v-9l4-6 8-6 4-1h7l8 4 7 7 3 2v2l4 2 12 11 8 6 5-1 8-7 82-82 9-7z" fill="#FCFCF4"/>
<path transform="translate(681,606)" d="m0 0 2 1-10 14-8 10-20 20-14 11-17 11-27 13-29 9-17 3-13 1h-26l-27-3-21-6-20-7-16-8-19-11-10-8-8-7-12-11-10-10-10-13-3-4 1-2 8 6 13 4 6 4 8 8 14 6 16 8 13 8 7 3v2l6 1 14 6 12 3 5 2 18 4 5 2 7 1h13l16-1 19-3 17-4 9-3 17-5 8-4 10-4 5-1v-2l8-4h2v-2l17-10 11-7 3-3h2v-2l5-3 11-7 7-4z" fill="#2B89A2"/>
<path transform="translate(635,471)" d="m0 0h2l2 16v23l-2 17-6 20-7 14-2 3-11 6-14 8-17 8-25 9-11 3-8 1h-13l2-6 9-11 7-7 7-8 12-13 7-8 14-14 7-8 5-6h2l2-4 9-11 11-12 7-8 5-5z" fill="#FCDB80"/>
<path transform="translate(378,558)" d="m0 0 3 4 10 19 12 14v2h2v2h2l6 7 13 10 11 8 20 11 18 6 21 4 8 1h18l22-3 26-8 17-8 13-9 10-8 6-5 4-5 5-5 11-14 5-3-1 7-4 11-9 12-5 5-11 10-8 7-11 8-11 7-19 9-24 8-15 3h-19l-18-4-26-10-26-13-8-7-11-9-7-8-5-5-11-13-8-15-6-20z" fill="#2A87A0"/>
<path transform="translate(569,362)" d="m0 0 12 5 16 10 8 7 19 1 11 4 5 3 8 11 7 12 3 12v11l-3 6h-3l1 6 1 9 1 7h-2v-3l-6-2h-10l-3-3h-3l-1-3 4 1 1-7 7-2 3-3h4v-7l-1-3-4-2v-7l4-1 1-4-5-3-3-5-1-5-16-2-4 2-3 1-6 1-8 6-1-7 1-7-4-2-3-6-2-5-1-9-1-2-7-3-3-1v-2l-4-1-6-3v-2l-5-1z" fill="#143F4B"/>
<path transform="translate(628,413)" d="m0 0 2 4 2 3 3 1v7l-4 7-15 15-7 8-7-1-2 7-10 5-1-3 4-10 5-3 3-5 7-2v-9l5-5 4-1 2-5-3-1 4-8z" fill="#FBFDFB"/>
<path transform="translate(463,498)" d="m0 0h2l2 11 14 7 2 3 12 1 2 1 13 1 2 5-2 1h-13l-2 5h-2l3 4h-2l-1 2-5-2-3-5-3-1v-2l-5-2-2-3-2 1-1-4-4-5-3-1v-2l-4-2-1-5h-4l1-3 5-1z" fill="#FDFDFD"/>
<path transform="translate(512,370)" d="m0 0 9 1 4 8v6l-8 8-6 1-6-3-6-7v-12z" fill="#FCFBEF"/>
<path transform="translate(578,485)" d="m0 0 1 3-5 6-8 7-13 13-7 8-16 15-12 13-8 6-6-1-8-7 2-2h5l1 5h8l7-6 4-7 5-3 6-7 4-1-1-6 5-1 2 1 2-5 6-6 2-1v-2l6-4 4-4 1-3 5-3 3-4 5-2z" fill="#EBF9F0"/>
<path transform="translate(458,471)" d="m0 0h7l1 2-9 2-7 4-3 6v7l3 6 2 1v3l3 1 1 2 4 1 3 4v2l2 1v2l4 1 5 7h-3l-7-7-8-7-11-11-3-5v-9l4-6 8-6z" fill="#EEFAF3"/>
<path transform="translate(689,353)" d="m0 0 5 2 1 5 6 7 2 6 6 8 1 5h2l5 8 1 5 2 2 3 10 2 6-2 3-4-11-7-15-7-13-11-17-6-8z" fill="#F5FDF7"/>
<path transform="translate(319,323)" d="m0 0 2 1-2 6-4 2-2 5h-2l-2 4-4 5-4 12-6 2-2 3-3-1 7-12 10-14 10-12z" fill="#EFFAF3"/>
<path transform="translate(260,441)" d="m0 0h1v15l-2 9v32l-4 2v-29l3-24z" fill="#F8FEFA"/>
<path transform="translate(395,326)" d="m0 0 3 1-5 4-11 9-16 15-9 10-9 12h-1l1-7 3-1v-7l2-2 3 1h3l2-6 7-5 1-2h2l1-3 5-2 2-6 4-1 1-3z" fill="#133E4A"/>
<path transform="translate(738,488)" d="m0 0 3 3-1 7v15l-1 13-2 2-1 7-3 1 2-18 2-29z" fill="#F8FDF9"/>
<path transform="translate(526,530)" d="m0 0 2 3-1 2h-2v3l-2 1-4 7-4 1-3 1-1 2-5 1-1-5 7-2 4-7 5-5z" fill="#FDFDFC"/>
<path transform="translate(609,409)" d="m0 0m-1 1m-1 1v3l-5 7-8 5-5 9-5 3h-2l-2 4-5 3-5 5-2-1 34-34z" fill="#DCF3E5"/>
<path transform="translate(316,330)" d="m0 0 4 3-3 9-3 5-5 2-2-1 1-7 3-4h2l1-5z" fill="#FDFDF7"/>
<path transform="translate(526,549)" d="m0 0 2 1 1 5-1 2h-3v2l-9 2-1 2h-3l-1 3-2-1 1-6 7-3 4-3 4-1z" fill="#133E4A"/>
<path transform="translate(272,400)" d="m0 0h1l-1 11-2 3 1 2h-2l1 5-1 2h-2l-2 6h-3l3-14 5-13z" fill="#E8F7F0"/>
<path transform="translate(463,498)" d="m0 0h2l2 11 4 4 1 4h-3l-4-2v-2l-4-2-1-5h-4l1-3 5-1z" fill="#FDFDFB"/>
<path transform="translate(587,280)" d="m0 0 5 1 7 2 5 2 6 4 9 4 5 4-1 2-15-8-13-5-10-4z" fill="#DFF3EB"/>
<path transform="translate(732,536)" d="m0 0 3 1-2 11-1 9-4 11-4 2 2-9z" fill="#E6F6EF"/>
<path transform="translate(602,456)" d="m0 0 4 1 2 2-24 24-2-1 3-4 5-6 8-7 2-3 1-5z" fill="#E0F5E8"/>
<path transform="translate(537,480)" d="m0 0 2 1v2l-5 2v3l-4 2-5 10-5 1v3h-2l-1 2h-3l1-4z" fill="#F8FDF9"/>
<path transform="translate(569,362)" d="m0 0 12 5 16 10 2 4-6-2-1-2-7-3-3-1v-2l-4-1-6-3v-2l-5-1z" fill="#133B48"/>
<path transform="translate(771,489)" d="m0 0 2 2v20l-2 11h-2l1-32z" fill="#E1F5EC"/>
<path transform="translate(689,353)" d="m0 0 5 2 1 5 6 7 2 6 2 3-1 4-10-16-6-8z" fill="#EDFAF2"/>
<path transform="translate(475,523)" d="m0 0 2 4 5 2v2l5 1 1 4 5 2 3 6v3l-5-5-16-15z" fill="#EBF9F0"/>
<path transform="translate(703,613)" d="m0 0 2 1-5 5-2 1 2-4zm-6 7 1 2-2 7-3 3-4 1 2-4zm-9 13 1 3-3 1-1 4-3-1z" fill="#E5F6EE"/>
<path transform="translate(537,269)" d="m0 0h11l11 2 3 4-13-2-17-2v-1z" fill="#D3EEE6"/>
<path transform="translate(488,268)" d="m0 0h20v2l-22 2h-7l4-3z" fill="#ECF9F3"/>
<path transform="translate(390,265)" d="m0 0 2 1-5 5-6 3-1 2-4 2h-4l-1 3-6 1 5-4 17-11z" fill="#DEF4EA"/>
<path transform="translate(402,297)" d="m0 0h4v2l-10 6-12 8v-3l5-5 6-3 1-2z" fill="#E5F6ED"/>
<path transform="translate(444,299)" d="m0 0 5 1-3 2-14 6h-2v-2l3-2 2-3z" fill="#143F4B"/>
<path transform="translate(658,474)" d="m0 0h1l1 9v25h-1l-1-13-2-9 1-8z" fill="#133D4A"/>
<path transform="translate(717,586)" d="m0 0h2l-1 4h-2l-3 10-4 9h-2v2l-3-1 12-23z" fill="#E4F5E8"/>
<path transform="translate(432,247)" d="m0 0 2 1-3 3-15 5-5 1v-2l15-6z" fill="#DEF3EA"/>
<path transform="translate(581,476)" d="m0 0 2 1-1 2-5 2 3 3-2 1v2h-6l1-3-5 1 2-4 10-4z" fill="#FDFDFD"/>
<path transform="translate(457,457)" d="m0 0h7l3 2-1 4-9-1-2-4z" fill="#143F4B"/>
<path transform="translate(714,397)" d="m0 0h3l3 4 3 10 2 6-2 3-4-11z" fill="#EFF8F1"/>
<path transform="translate(310,339)" d="m0 0 6 3-2 5-5 2-2-1 1-7z" fill="#FDFDFC"/>
<path transform="translate(536,352)" d="m0 0 12 2 3 2-6 1h-8l-4-4z" fill="#133D49"/>
<path transform="translate(413,314)" d="m0 0 3 1-5 4-10 7-2-1v-2h2l1-3 6-3 2-2z" fill="#133E4A"/>
<path transform="translate(281,377)" d="m0 0 2 1-2 4-2 12-4 1-2 1 2-6z" fill="#E6F7ED"/>
<path transform="translate(490,289)" d="m0 0h6v2l-19 3-8 1 4-3 10-2z" fill="#133E4A"/>
<path transform="translate(649,407)" d="m0 0 4 4 4 10v11h-1l-3-15-2-6h-2l-1-3z" fill="#123442"/>
<path transform="translate(478,486)" d="m0 0 3 2-1 7-8 1 1-5 5-1-1-3z" fill="#FDFDFD"/>
<path transform="translate(446,470)" d="m0 0 4 2-1 4-4 4-5 1 1-5 4-2z" fill="#133B48"/>
<path transform="translate(552,716)" d="m0 0h5l-1 2-10 2h-14v-1z" fill="#F8FDF9"/>
<path transform="translate(519,563)" d="m0 0 3 1 1 4-6 3-3-2 1-4z" fill="#143F4B"/>
<path transform="translate(476,520)" d="m0 0 4 2 1 4 6 5-2 1-3-1v-2l-5-2-2-5zm-3 3 2 1-2 1z" fill="#FCFDF4"/>
<path transform="translate(458,471)" d="m0 0h7l1 2-9 2-4 3-3-1 2-4z" fill="#D2EEE6"/>
<path transform="translate(443,279)" d="m0 0h6l-3 2-16 6h-2l1-4 8-1z" fill="#F8FEFA"/>
<path transform="translate(732,536)" d="m0 0 3 1-2 11-1 3-3 1 2-11z" fill="#D9F1E8"/>
<path transform="translate(291,530)" d="m0 0h2l2 9v7l-3-1z" fill="#DFF4EC"/>
<path transform="translate(602,456)" d="m0 0 4 1 2 2-7 6-1-6z" fill="#EBF8EC"/>
<path transform="translate(510,544)" d="m0 0 3 1 1 3h-2l-1 2-5 1-1-5z" fill="#FEFEFE"/>
<path transform="translate(554,463)" d="m0 0m-1 1 1 3-3 5-6 3-2-1z" fill="#F8FDF9"/>
<path transform="translate(553,356)" d="m0 0 10 3 5 2-4 2-10-3z" fill="#133C48"/>
<path transform="translate(632,586)" d="m0 0 2 1 1 3-5 3h-2v4l-5 2 2-4z" fill="#3A9DBA"/>
<path transform="translate(336,390)" d="m0 0 3 1-3 6-5 5-1-5z" fill="#133E4A"/>
<path transform="translate(409,256)" d="m0 0 2 1-4 4-10 4-2-1 3-3z" fill="#ECF9F1"/>
<path transform="translate(730,439)" d="m0 0h2l3 13-3 3z" fill="#DDF3EB"/>
<path transform="translate(549,525)" d="m0 0 4 4-1 3-6-1-3-2 2-2h3z" fill="#143F4B"/>
<path transform="translate(579,464)" d="m0 0h2v11l-5-5-2-4z" fill="#FEFEFE"/>
<path transform="translate(724,421)" d="m0 0 3 1 2 3 2 14-2-1z" fill="#F8FDF9"/>
<path transform="translate(573,274)" d="m0 0 8 2 1 3-3 1-8-2z" fill="#E1F4ED"/>
<path transform="translate(613,407)" d="m0 0 8 1v2l-13 2z" fill="#F8FEFA"/>
<path transform="translate(343,378)" d="m0 0 3 1-6 10h-2l1-5z" fill="#133C49"/>
<path transform="translate(614,448)" d="m0 0 1 4-7 6v-4h2l2-5z" fill="#E3ECD8"/>
<path transform="translate(551,506)" d="m0 0 2 4-3 3-4-1 1-4z" fill="#FDFDFB"/>
<path transform="translate(320,426)" d="m0 0 2 1-3 11-3-4z" fill="#143F4B"/>
<path transform="translate(729,355)" d="m0 0 4 2 5 8v2l-4-2z" fill="#D8F1E6"/>
<path transform="translate(605,310)" d="m0 0 7 1 3 4-1 2-9-5z" fill="#133D49"/>
<path transform="translate(363,283)" d="m0 0 2 2-5 4-3 1-1 2-3-1 4-4z" fill="#E9F8EE"/>
<path transform="translate(452,241)" d="m0 0 3 1-1 2-7 2-4-1 5-3z" fill="#DCF2EB"/>
<path transform="translate(499,501)" d="m0 0 4 1 4 4-2 2-5-3z" fill="#DCF2E8"/>
<path transform="translate(288,365)" d="m0 0 3 1v2h-2l-1 4-4 2 2-6z" fill="#F2FCF5"/>
<path transform="translate(463,509)" d="m0 0 1 3 5 1 3 4h-3l-4-2v-2l-4-2z" fill="#FCFDF4"/>
</svg>
